<svg width="7" height="10" viewBox="0 0 7 10" fill="none" xmlns="http://www.w3.org/2000/svg">
<path d="M2.56675 9.5C2.42673 9.5 2.35673 9.5 2.30325 9.47275C2.25621 9.44878 2.21796 9.41054 2.194 9.3635C2.16675 9.31002 2.16675 9.24001 2.16675 9.1V6H1.04115C0.756133 6 0.613624 6 0.533789 5.9404C0.46421 5.88846 0.420548 5.80892 0.414083 5.72234C0.406665 5.62299 0.483174 5.50276 0.636194 5.2623L3.26179 1.13636C3.39639 0.924851 3.46369 0.819095 3.54947 0.782661C3.62442 0.750831 3.70908 0.750831 3.78402 0.782661C3.86981 0.819095 3.93711 0.924851 4.07171 1.13636L6.6973 5.2623C6.85032 5.50276 6.92683 5.62299 6.91941 5.72234C6.91295 5.80892 6.86929 5.88846 6.79971 5.9404C6.71987 6 6.57736 6 6.29235 6H5.16675V9.1C5.16675 9.24001 5.16675 9.31002 5.1395 9.3635C5.11553 9.41054 5.07729 9.44878 5.03025 9.47275C4.97677 9.5 4.90676 9.5 4.76675 9.5H2.56675Z" fill="#667085"/>
</svg>
