<svg width="7" height="10" viewBox="0 0 7 10" fill="none" xmlns="http://www.w3.org/2000/svg">
<path d="M2.23337 0.5C2.09336 0.5 2.02335 0.5 1.96988 0.527248C1.92284 0.551217 1.88459 0.589461 1.86062 0.636502C1.83337 0.689981 1.83337 0.759987 1.83337 0.9V4H0.707777C0.422759 4 0.28025 4 0.200415 4.0596C0.130836 4.11154 0.0871739 4.19108 0.0807088 4.27766C0.0732906 4.37701 0.1498 4.49724 0.30282 4.7377L2.92842 8.86364C3.06301 9.07515 3.13031 9.1809 3.2161 9.21734C3.29104 9.24917 3.37571 9.24917 3.45065 9.21734C3.53643 9.1809 3.60373 9.07515 3.73833 8.86364L6.36393 4.7377C6.51695 4.49724 6.59346 4.37701 6.58604 4.27766C6.57957 4.19108 6.53591 4.11154 6.46633 4.0596C6.3865 4 6.24399 4 5.95897 4H4.83337V0.9C4.83337 0.759987 4.83337 0.689981 4.80613 0.636502C4.78216 0.589461 4.74391 0.551217 4.69687 0.527248C4.64339 0.5 4.57339 0.5 4.43337 0.5H2.23337Z" fill="#667085"/>
</svg>
