<svg width="20" height="17" viewBox="0 0 20 17" fill="none" xmlns="http://www.w3.org/2000/svg">
<path d="M18.3334 16V14.3333C18.3334 12.7801 17.271 11.4751 15.8334 11.105M12.9167 1.2423C14.1383 1.73679 15 2.93443 15 4.33333C15 5.73224 14.1383 6.92988 12.9167 7.42437M14.1667 16C14.1667 14.4469 14.1667 13.6703 13.913 13.0577C13.5746 12.241 12.9257 11.592 12.109 11.2537C11.4964 11 10.7198 11 9.16669 11H6.66669C5.11355 11 4.33698 11 3.72441 11.2537C2.90765 11.592 2.25874 12.241 1.92042 13.0577C1.66669 13.6703 1.66669 14.4469 1.66669 16M11.25 4.33333C11.25 6.17428 9.75764 7.66667 7.91669 7.66667C6.07574 7.66667 4.58335 6.17428 4.58335 4.33333C4.58335 2.49238 6.07574 1 7.91669 1C9.75764 1 11.25 2.49238 11.25 4.33333Z" stroke="white" stroke-width="1.5" stroke-linecap="round" stroke-linejoin="round"/>
</svg>
