<svg width="18" height="15" viewBox="0 0 18 15" fill="none" xmlns="http://www.w3.org/2000/svg">
<path d="M12 12L14.25 14.25M14.25 14.25L16.5 12M14.25 14.25V9.75M11.625 0.968069C12.7244 1.41311 13.5 2.49098 13.5 3.75C13.5 5.00902 12.7244 6.08689 11.625 6.53193M9 9.75H6C4.60218 9.75 3.90326 9.75 3.35195 9.97836C2.61687 10.2828 2.03284 10.8669 1.72836 11.6019C1.5 12.1533 1.5 12.8522 1.5 14.25M10.125 3.75C10.125 5.40685 8.78185 6.75 7.125 6.75C5.46815 6.75 4.125 5.40685 4.125 3.75C4.125 2.09315 5.46815 0.75 7.125 0.75C8.78185 0.75 10.125 2.09315 10.125 3.75Z" stroke="#344054" stroke-width="1.5" stroke-linecap="round" stroke-linejoin="round"/>
</svg>
