<svg width="12" height="12" viewBox="0 0 12 12" fill="none" xmlns="http://www.w3.org/2000/svg">
<path d="M0.677731 9.56743C0.704531 9.32622 0.717932 9.20562 0.754424 9.0929C0.786799 8.99289 0.832543 8.89771 0.890412 8.80996C0.95564 8.71104 1.04144 8.62524 1.21305 8.45363L8.91672 0.749972C9.56106 0.10564 10.6057 0.105641 11.2501 0.749973C11.8944 1.39431 11.8944 2.43898 11.2501 3.08331L3.54638 10.787C3.37478 10.9586 3.28897 11.0444 3.19006 11.1096C3.1023 11.1675 3.00713 11.2132 2.90712 11.2456C2.79439 11.2821 2.67379 11.2955 2.43259 11.3223L0.458374 11.5416L0.677731 9.56743Z" fill="#667085"/>
</svg>
