<svg width="18" height="16" viewBox="0 0 18 16" fill="none" xmlns="http://www.w3.org/2000/svg">
<path d="M14.25 14.75V10.25M12 12.5H16.5M9 10.25H6C4.60218 10.25 3.90326 10.25 3.35195 10.4784C2.61687 10.7828 2.03284 11.3669 1.72836 12.1019C1.5 12.6533 1.5 13.3522 1.5 14.75M11.625 1.46807C12.7244 1.91311 13.5 2.99098 13.5 4.25C13.5 5.50902 12.7244 6.58689 11.625 7.03193M10.125 4.25C10.125 5.90685 8.78185 7.25 7.125 7.25C5.46815 7.25 4.125 5.90685 4.125 4.25C4.125 2.59315 5.46815 1.25 7.125 1.25C8.78185 1.25 10.125 2.59315 10.125 4.25Z" stroke="#53B1FD" stroke-width="1.4" stroke-linecap="round" stroke-linejoin="round"/>
</svg>
