<svg width="14" height="14" viewBox="0 0 14 14" fill="none" xmlns="http://www.w3.org/2000/svg">
<path d="M12.8334 5.25L9.33337 8.75M9.33337 5.25L12.8334 8.75" stroke="#667085" stroke-width="2" stroke-linecap="round" stroke-linejoin="round"/>
<path d="M0.583374 5.48063C0.583374 5.12607 0.583374 4.9488 0.661082 4.81338C0.729437 4.69426 0.838506 4.59741 0.972659 4.53671C1.12517 4.46771 1.32482 4.46771 1.72411 4.46771H2.96272C3.1371 4.46771 3.22429 4.46771 3.30634 4.45022C3.37909 4.43471 3.44864 4.40913 3.51243 4.37442C3.58438 4.33527 3.64603 4.28053 3.76934 4.17104L6.02636 2.16693C6.33177 1.89574 6.48448 1.76014 6.61559 1.75098C6.72935 1.74303 6.84052 1.78392 6.91463 1.86096C7.00004 1.94976 7.00004 2.14152 7.00004 2.52505V11.475C7.00004 11.8585 7.00004 12.0502 6.91463 12.139C6.84052 12.2161 6.72935 12.257 6.61559 12.249C6.48448 12.2399 6.33177 12.1043 6.02636 11.8331L3.76934 9.82896C3.64603 9.71947 3.58438 9.66473 3.51243 9.62558C3.44864 9.59087 3.37909 9.56529 3.30634 9.54978C3.22429 9.53229 3.1371 9.53229 2.96272 9.53229H1.72411C1.32482 9.53229 1.12517 9.53229 0.972659 9.46329C0.838506 9.40259 0.729437 9.30574 0.661082 9.18662C0.583374 9.0512 0.583374 8.87393 0.583374 8.51937V5.48063Z" fill="#667085"/>
</svg>
