<svg width="18" height="14" viewBox="0 0 18 14" fill="none" xmlns="http://www.w3.org/2000/svg">
<path d="M4.125 13H6M12.75 10.75H12.7575M6 2.5H3.9C3.05992 2.5 2.63988 2.5 2.31901 2.66349C2.03677 2.8073 1.8073 3.03677 1.66349 3.31901C1.5 3.63988 1.5 4.05992 1.5 4.9V7.6C1.5 8.44008 1.5 8.86012 1.66349 9.18099C1.8073 9.46323 2.03677 9.6927 2.31901 9.83651C2.63988 10 3.05992 10 3.9 10H6M11.4 13H14.1C14.9401 13 15.3601 13 15.681 12.8365C15.9632 12.6927 16.1927 12.4632 16.3365 12.181C16.5 11.8601 16.5 11.4401 16.5 10.6V3.4C16.5 2.55992 16.5 2.13988 16.3365 1.81901C16.1927 1.53677 15.9632 1.3073 15.681 1.16349C15.3601 1 14.9401 1 14.1 1H11.4C10.5599 1 10.1399 1 9.81901 1.16349C9.53677 1.3073 9.3073 1.53677 9.16349 1.81901C9 2.13988 9 2.55992 9 3.4V10.6C9 11.4401 9 11.8601 9.16349 12.181C9.3073 12.4632 9.53677 12.6927 9.81901 12.8365C10.1399 13 10.5599 13 11.4 13Z" stroke="#101828" stroke-width="1.4" stroke-linecap="round" stroke-linejoin="round"/>
</svg>
