<svg width="17" height="18" viewBox="0 0 17 18" fill="none" xmlns="http://www.w3.org/2000/svg">
<path d="M6.95114 15.6704C7.32144 15.5593 7.53157 15.1691 7.42048 14.7988C7.30939 14.4285 6.91915 14.2184 6.54886 14.3295L6.95114 15.6704ZM1.66977 12.0709C1.29472 11.9771 0.914664 12.2051 0.8209 12.5802C0.727136 12.9552 0.955169 13.3353 1.33023 13.4291L1.66977 12.0709ZM11.3 17.25C11.3 17.6366 11.6134 17.95 12 17.95C12.3866 17.95 12.7 17.6366 12.7 17.25H11.3ZM12 14.3475L11.3022 14.2926C11.3007 14.3108 11.3 14.3291 11.3 14.3475H12ZM11.295 12.39L11.2175 11.6943C10.952 11.7238 10.7265 11.9019 10.6362 12.1532C10.5459 12.4046 10.6065 12.6854 10.7924 12.8772L11.295 12.39ZM16.125 7.13995H16.825V7.13982L16.125 7.13995ZM15 4.32745L14.3442 4.0827C14.2505 4.33368 14.3083 4.6161 14.493 4.81012L15 4.32745ZM14.9325 1.49995L15.5759 1.22419C15.4939 1.03291 15.3311 0.88803 15.1316 0.828852L14.9325 1.49995ZM12 2.60995L11.8169 3.28558C12.0125 3.33859 12.2214 3.30424 12.3898 3.1914L12 2.60995ZM6.75 2.60995L6.36024 3.1914C6.52856 3.30424 6.73752 3.33859 6.93311 3.28558L6.75 2.60995ZM3.8175 1.49995L3.61844 0.828852C3.41893 0.88803 3.25609 1.03291 3.17411 1.22419L3.8175 1.49995ZM3.75 4.32745L4.25698 4.81013C4.44169 4.61611 4.49948 4.33368 4.40582 4.0827L3.75 4.32745ZM2.625 7.16245H3.32501L3.32499 7.15873L2.625 7.16245ZM7.455 12.4125L7.95802 12.8992C8.14258 12.7085 8.20341 12.4299 8.11514 12.1796C8.02686 11.9293 7.80464 11.7505 7.54128 11.7178L7.455 12.4125ZM6.75 14.3475H7.45C7.45 14.3311 7.44942 14.3147 7.44828 14.2983L6.75 14.3475ZM6.05 17.25C6.05 17.6366 6.3634 17.95 6.75 17.95C7.1366 17.95 7.45 17.6366 7.45 17.25H6.05ZM6.54886 14.3295C5.69095 14.5868 5.11663 14.5874 4.71811 14.4942C4.32861 14.403 4.04063 14.2069 3.77622 13.9425C3.64009 13.8063 3.51286 13.6547 3.3786 13.4866C3.25297 13.3292 3.10283 13.1332 2.95865 12.964C2.66719 12.6218 2.26588 12.2199 1.66977 12.0709L1.33023 13.4291C1.48412 13.4675 1.64531 13.5812 1.89291 13.8718C2.01827 14.019 2.13179 14.1687 2.28449 14.36C2.42855 14.5405 2.59429 14.7404 2.78628 14.9324C3.17812 15.3243 3.68701 15.6907 4.39907 15.8573C5.10212 16.0219 5.93405 15.9756 6.95114 15.6704L6.54886 14.3295ZM12.7 17.25V14.3475H11.3V17.25H12.7ZM12.6978 14.4024C12.7705 13.4785 12.4426 12.5681 11.7976 11.9027L10.7924 12.8772C11.1576 13.2539 11.3433 13.7695 11.3022 14.2926L12.6978 14.4024ZM11.3725 13.0856C12.5894 12.95 13.9684 12.642 15.0436 11.7379C16.1529 10.8052 16.825 9.33883 16.825 7.13995H15.425C15.425 9.03607 14.8596 10.0635 14.1426 10.6664C13.3916 11.2979 12.3556 11.5674 11.2175 11.6943L11.3725 13.0856ZM16.825 7.13982C16.8248 5.91304 16.3529 4.7333 15.507 3.84479L14.493 4.81012C15.0912 5.4384 15.4248 6.27261 15.425 7.14008L16.825 7.13982ZM15.6558 4.5722C16.0606 3.48743 16.032 2.2884 15.5759 1.22419L14.2891 1.77572C14.6034 2.50903 14.6231 3.33523 14.3442 4.0827L15.6558 4.5722ZM14.9325 1.49995C15.1316 0.828852 15.1309 0.828651 15.1302 0.828451C15.13 0.828382 15.1293 0.828181 15.1288 0.828046C15.1279 0.827775 15.1269 0.827501 15.126 0.827226C15.1241 0.826675 15.1221 0.826116 15.1201 0.825549C15.116 0.824416 15.1117 0.823253 15.1072 0.822069C15.0982 0.819699 15.0882 0.817244 15.0773 0.814763C15.0554 0.809801 15.0299 0.804751 15.0007 0.80009C14.9422 0.790758 14.8692 0.783063 14.7815 0.780648C14.6056 0.775807 14.3736 0.792256 14.0824 0.856903C13.5012 0.98592 12.6882 1.30591 11.6102 2.0285L12.3898 3.1914C13.3593 2.5415 14.0125 2.30649 14.3858 2.22363C14.5718 2.18234 14.6889 2.17863 14.743 2.18012C14.7702 2.18087 14.7823 2.18296 14.7802 2.18262C14.7792 2.18246 14.7747 2.18171 14.7669 2.17992C14.7629 2.17902 14.7582 2.17788 14.7526 2.17642C14.7498 2.17569 14.7468 2.17488 14.7436 2.17399C14.742 2.17354 14.7404 2.17307 14.7387 2.17259C14.7378 2.17234 14.737 2.17209 14.7361 2.17184C14.7357 2.17171 14.735 2.17151 14.7348 2.17145C14.7341 2.17125 14.7334 2.17105 14.9325 1.49995ZM12.1831 1.93433C10.3442 1.43595 8.40579 1.43595 6.56689 1.93433L6.93311 3.28558C8.53219 2.85219 10.2178 2.85219 11.8169 3.28558L12.1831 1.93433ZM7.13976 2.0285C6.0618 1.30591 5.24879 0.98592 4.66765 0.856903C4.37645 0.792256 4.14439 0.775807 3.96851 0.780648C3.88076 0.783063 3.8078 0.790758 3.74928 0.80009C3.72006 0.804751 3.69456 0.8098 3.67273 0.814763C3.66183 0.817244 3.65185 0.819699 3.6428 0.822069C3.63827 0.823253 3.63398 0.824416 3.62992 0.825549C3.62789 0.826116 3.62592 0.826675 3.62401 0.827226C3.62305 0.827501 3.62211 0.827775 3.62118 0.828046C3.62072 0.828181 3.62003 0.828382 3.6198 0.828451C3.61912 0.828651 3.61844 0.828852 3.8175 1.49995C4.01656 2.17105 4.01588 2.17125 4.01522 2.17145C4.015 2.17151 4.01433 2.17171 4.0139 2.17184C4.01302 2.17209 4.01216 2.17234 4.01131 2.17259C4.00962 2.17307 4.00797 2.17354 4.00637 2.17399C4.00318 2.17488 4.00019 2.17569 3.9974 2.17642C3.99183 2.17788 3.98707 2.17902 3.98314 2.17992C3.97528 2.18171 3.97079 2.18246 3.96977 2.18262C3.96765 2.18296 3.97982 2.18087 4.00703 2.18012C4.06108 2.17863 4.17824 2.18234 4.36423 2.22363C4.73746 2.30649 5.3907 2.5415 6.36024 3.1914L7.13976 2.0285ZM3.17411 1.22419C2.71797 2.2884 2.68935 3.48743 3.09418 4.5722L4.40582 4.0827C4.12687 3.33523 4.14659 2.50903 4.46089 1.77572L3.17411 1.22419ZM3.24302 3.84478C2.39082 4.73988 1.91844 5.93028 1.92501 7.16617L3.32499 7.15873C3.32034 6.28482 3.65437 5.44307 4.25698 4.81013L3.24302 3.84478ZM1.925 7.16245C1.925 9.34858 2.59853 10.8064 3.70637 11.7379C4.7791 12.6399 6.15538 12.9564 7.36872 13.1071L7.54128 11.7178C6.39962 11.576 5.3609 11.3 4.60738 10.6664C3.88897 10.0623 3.325 9.04132 3.325 7.16245H1.925ZM6.95198 11.9257C6.31473 12.5841 5.98743 13.4825 6.05172 14.3966L7.44828 14.2983C7.41187 13.7808 7.5972 13.2721 7.95802 12.8992L6.95198 11.9257ZM6.05 14.3475V17.25H7.45V14.3475H6.05Z" fill="#101828"/>
</svg>
