<svg width="18" height="12" viewBox="0 0 18 12" fill="none" xmlns="http://www.w3.org/2000/svg">
<path d="M5.25 7.875H12.75M4.5 4.5H4.5075M7.5 4.5H7.5075M10.5 4.5H10.5075M13.5 4.5H13.5075M3.9 10.5H14.1C14.9401 10.5 15.3601 10.5 15.681 10.3365C15.9632 10.1927 16.1927 9.96323 16.3365 9.68099C16.5 9.36012 16.5 8.94008 16.5 8.1V3.9C16.5 3.05992 16.5 2.63988 16.3365 2.31901C16.1927 2.03677 15.9632 1.8073 15.681 1.66349C15.3601 1.5 14.9401 1.5 14.1 1.5H3.9C3.05992 1.5 2.63988 1.5 2.31901 1.66349C2.03677 1.8073 1.8073 2.03677 1.66349 2.31901C1.5 2.63988 1.5 3.05992 1.5 3.9V8.1C1.5 8.94008 1.5 9.36012 1.66349 9.68099C1.8073 9.96323 2.03677 10.1927 2.31901 10.3365C2.63988 10.5 3.05992 10.5 3.9 10.5Z" stroke="#101828" stroke-width="1.4" stroke-linecap="round" stroke-linejoin="round"/>
</svg>
