<svg width="15" height="18" viewBox="0 0 15 18" fill="none" xmlns="http://www.w3.org/2000/svg">
<path d="M8.5 8.25H4M5.5 11.25H4M10 5.25H4M13 7.5V5.1C13 3.83988 13 3.20982 12.7548 2.72852C12.539 2.30516 12.1948 1.96095 11.7715 1.74524C11.2902 1.5 10.6601 1.5 9.4 1.5H4.6C3.33988 1.5 2.70982 1.5 2.22852 1.74524C1.80516 1.96095 1.46095 2.30516 1.24524 2.72852C1 3.20982 1 3.83988 1 5.1V12.9C1 14.1601 1 14.7902 1.24524 15.2715C1.46095 15.6948 1.80516 16.039 2.22852 16.2548C2.70982 16.5 3.33988 16.5 4.6 16.5H7.375M11.5 15.75C11.5 15.75 13.75 14.6776 13.75 13.0689V11.1922L12.1093 10.6059C11.7151 10.4647 11.284 10.4647 10.8898 10.6059L9.25 11.1922V13.0689C9.25 14.6776 11.5 15.75 11.5 15.75Z" stroke="#101828" stroke-width="1.4" stroke-linecap="round" stroke-linejoin="round"/>
</svg>
