<svg width="18" height="18" viewBox="0 0 18 18" fill="none" xmlns="http://www.w3.org/2000/svg">
<path d="M13.3085 2.10961C14.0321 1.36225 15.2276 1.35259 15.9632 2.08815C16.6786 2.80355 16.6919 3.95928 15.9932 4.69098L13.9092 6.87331C13.7458 7.04436 13.6642 7.12989 13.6138 7.23006C13.5693 7.31873 13.5428 7.41537 13.5358 7.51437C13.528 7.6262 13.5546 7.74143 13.6078 7.97189L14.9037 13.5876C14.9583 13.8241 14.9856 13.9424 14.9768 14.0568C14.969 14.1581 14.9407 14.2567 14.8936 14.3467C14.8405 14.4484 14.7546 14.5342 14.583 14.7059L14.3049 14.984C13.8503 15.4386 13.623 15.6659 13.3903 15.7071C13.1872 15.743 12.9782 15.6937 12.8126 15.5707C12.6229 15.4298 12.5212 15.1249 12.3179 14.5149L10.8106 9.99298L8.30162 12.502C8.15185 12.6517 8.07697 12.7266 8.02688 12.8148C7.9825 12.8929 7.95252 12.9784 7.93837 13.0671C7.9224 13.1673 7.93409 13.2725 7.95748 13.483L8.09527 14.7231C8.11865 14.9336 8.13035 15.0388 8.11438 15.139C8.10023 15.2277 8.07025 15.3131 8.02587 15.3913C7.97578 15.4795 7.9009 15.5543 7.75113 15.7041L7.603 15.8522C7.24821 16.207 7.07081 16.3844 6.87368 16.4358C6.70077 16.4809 6.51745 16.4627 6.35673 16.3846C6.1735 16.2956 6.03434 16.0868 5.75602 15.6693L4.57977 13.905C4.53005 13.8304 4.50519 13.7931 4.47632 13.7593C4.45068 13.7292 4.42271 13.7013 4.39266 13.6756C4.35884 13.6467 4.32154 13.6219 4.24695 13.5722L2.48259 12.3959C2.06511 12.1176 1.85636 11.9784 1.76732 11.7952C1.68923 11.6345 1.67107 11.4512 1.71614 11.2783C1.76751 11.0811 1.94491 10.9037 2.2997 10.5489L2.44783 10.4008C2.5976 10.251 2.67248 10.1762 2.76066 10.1261C2.83879 10.0817 2.92425 10.0517 3.01297 10.0376C3.11312 10.0216 3.21838 10.0333 3.42888 10.0567L4.66892 10.1945C4.87942 10.2178 4.98468 10.2295 5.08483 10.2136C5.17355 10.1994 5.25901 10.1694 5.33713 10.1251C5.42532 10.075 5.5002 10.0001 5.64997 9.85032L8.15896 7.34133L3.637 5.83401C3.02708 5.6307 2.72212 5.52905 2.58127 5.33937C2.45828 5.17374 2.40895 4.96476 2.44488 4.76161C2.48603 4.52897 2.71334 4.30167 3.16794 3.84706L3.44602 3.56898C3.61769 3.39731 3.70353 3.31148 3.80522 3.25831C3.89523 3.21125 3.99386 3.18296 4.09512 3.17516C4.20954 3.16635 4.32782 3.19365 4.56438 3.24824L10.1587 4.53924C10.3912 4.59289 10.5074 4.61971 10.6197 4.61173C10.728 4.60403 10.8334 4.57288 10.9285 4.52044C11.027 4.46613 11.11 4.38043 11.276 4.20903L13.3085 2.10961Z" stroke="#101828" stroke-width="1.4" stroke-linecap="round" stroke-linejoin="round"/>
</svg>
